<svg version="1.1" xmlns="http://www.w3.org/2000/svg" xmlns:xlink="http://www.w3.org/1999/xlink" width="875" height="1294"><defs/><g><g transform="translate(-222,-54) scale(1,1)"><path fill="#ffffff" stroke="none" d="M 328.5 64 L 390.5 64 Q 407 64 407 80.5 L 407 79.5 Q 407 96 390.5 96 L 328.5 96 Q 312 96 312 79.5 L 312 80.5 Q 312 64 328.5 64 Z"/></g><g transform="translate(-222,-54) scale(1,1)"><path fill="none" stroke="#000000" d="M 328.5 64 L 390.5 64 Q 407 64 407 80.5 L 407 79.5 Q 407 96 390.5 96 L 328.5 96 Q 312 96 312 79.5 L 312 80.5 Q 312 64 328.5 64 Z" stroke-miterlimit="10"/></g><g transform="translate(-222,-54) scale(1,1)"><g><path fill="none" stroke="none"/><text fill="#000000" stroke="none" font-family="Arial" font-size="13px" font-style="normal" font-weight="normal" text-decoration="none" x="338.194091796875" y="86.5">START</text></g></g><g transform="translate(-222,-54) scale(1,1)"><rect fill="#ffffff" stroke="none" x="284" y="133" width="151" height="47"/></g><g transform="translate(-222,-54) scale(1,1)"><path fill="none" stroke="#000000" d="M 284 133 L 435 133 L 435 180 L 284 180 L 284 133 Z Z" stroke-miterlimit="10"/></g><g transform="translate(-222,-54) scale(1,1)"><g><path fill="none" stroke="none"/><text fill="#000000" stroke="none" font-family="Arial" font-size="13px" font-style="normal" font-weight="normal" text-decoration="none" x="296.27099609375" y="155.5">get image dimensions</text></g></g><g transform="translate(-222,-54) scale(1,1)"><path fill="#ffffff" stroke="none" d="M 509 128 L 597 128 L 607 138 L 607 176 L 509 176 L 509 128"/></g><g transform="translate(-222,-54) scale(1,1)"><path fill="none" stroke="#000000" d="M 509 128 L 597 128 L 607 138 L 607 176 L 509 176 L 509 128 L 509 128" stroke-miterlimit="10"/></g><g transform="translate(-222,-54) scale(1,1)"><path fill="none" stroke="#000000" d="M 597 128 L 597 138 L 607 138 L 597 128" stroke-miterlimit="10"/></g><g transform="translate(-222,-54) scale(1,1)"><g><path fill="none" stroke="none"/><text fill="#000000" stroke="none" font-family="Arial" font-size="13px" font-style="normal" font-weight="normal" text-decoration="none" x="514" y="146">see principal</text><text fill="#000000" stroke="none" font-family="Arial" font-size="13px" font-style="normal" font-weight="normal" text-decoration="none" x="514" y="159">schematic</text></g></g><g transform="translate(-222,-54) scale(1,1)"><path fill="none" stroke="#000000" d="M 436 154 L 508 153" stroke-miterlimit="10" stroke-dasharray="3"/></g><g transform="translate(-222,-54) scale(1,1)"><path fill="#ffffff" stroke="none" d="M 306 217 L 439 217 L 413 264 L 280 264 L 306 217"/></g><g transform="translate(-222,-54) scale(1,1)"><path fill="none" stroke="#000000" d="M 306 217 L 439 217 L 413 264 L 280 264 L 306 217 L 306 217" stroke-miterlimit="10"/></g><g transform="translate(-222,-54) scale(1,1)"><g><path fill="none" stroke="none"/><text fill="#000000" stroke="none" font-family="Arial" font-size="13px" font-style="normal" font-weight="normal" text-decoration="none" x="326.619140625" y="239.5">Open file in</text><text fill="#000000" stroke="none" font-family="Arial" font-size="13px" font-style="normal" font-weight="normal" text-decoration="none" x="327.7109375" y="252.5">write mode</text></g></g><g transform="translate(-222,-54) scale(1,1)"><rect fill="#ffffff" stroke="none" x="280" y="415" width="159" height="47"/></g><g transform="translate(-222,-54) scale(1,1)"><path fill="none" stroke="#000000" d="M 280 415 L 439 415 L 439 462 L 280 462 L 280 415 Z Z" stroke-miterlimit="10"/></g><g transform="translate(-222,-54) scale(1,1)"><g><path fill="none" stroke="none"/><text fill="#000000" stroke="none" font-family="Arial" font-size="13px" font-style="normal" font-weight="normal" text-decoration="none" x="299.168701171875" y="437.5">Create empty bitmap</text></g></g><g transform="translate(-222,-54) scale(1,1)"><rect fill="#ffffff" stroke="none" x="280" y="499" width="159" height="63"/></g><g transform="translate(-222,-54) scale(1,1)"><path fill="none" stroke="#000000" d="M 280 499 L 439 499 L 439 562 L 280 562 L 280 499 Z Z" stroke-miterlimit="10"/></g><g transform="translate(-222,-54) scale(1,1)"><g><path fill="none" stroke="none"/><text fill="#000000" stroke="none" font-family="Arial" font-size="13px" font-style="normal" font-weight="normal" text-decoration="none" x="294.8173828125" y="521.5">Palette creation based</text><text fill="#000000" stroke="none" font-family="Arial" font-size="13px" font-style="normal" font-weight="normal" text-decoration="none" x="319.392333984375" y="534.5">on number of </text><text fill="#000000" stroke="none" font-family="Arial" font-size="13px" font-style="normal" font-weight="normal" text-decoration="none" x="306.40185546875" y="547.5">maximum iteration</text></g></g><g transform="translate(-222,-54) scale(1,1)"><rect fill="#ffffff" stroke="none" x="280" y="665" width="159" height="47"/></g><g transform="translate(-222,-54) scale(1,1)"><path fill="none" stroke="#000000" d="M 280 665 L 439 665 L 439 712 L 280 712 L 280 665 Z Z" stroke-miterlimit="10"/></g><g transform="translate(-222,-54) scale(1,1)"><g><path fill="none" stroke="none"/><text fill="#000000" stroke="none" font-family="Arial" font-size="13px" font-style="normal" font-weight="normal" text-decoration="none" x="301.688720703125" y="687.5">Select a mandelbrot</text><text fill="#000000" stroke="none" font-family="Arial" font-size="13px" font-style="normal" font-weight="normal" text-decoration="none" x="321.4140625" y="700.5">matrix's point</text></g></g><g transform="translate(-222,-54) scale(1,1)"><rect fill="#ffffff" stroke="none" x="280" y="749" width="159" height="58"/></g><g transform="translate(-222,-54) scale(1,1)"><path fill="none" stroke="#000000" d="M 280 749 L 439 749 L 439 807 L 280 807 L 280 749 Z Z" stroke-miterlimit="10"/></g><g transform="translate(-222,-54) scale(1,1)"><g><path fill="none" stroke="none"/><text fill="#000000" stroke="none" font-family="Arial" font-size="13px" font-style="normal" font-weight="normal" text-decoration="none" x="304.224609375" y="771.5">Convert it in a pixel</text><text fill="#000000" stroke="none" font-family="Arial" font-size="13px" font-style="normal" font-weight="normal" text-decoration="none" x="295.195068359375" y="784.5">(RGB) point according</text><text fill="#000000" stroke="none" font-family="Arial" font-size="13px" font-style="normal" font-weight="normal" text-decoration="none" x="332.75732421875" y="797.5">to palette</text></g></g><g transform="translate(-222,-54) scale(1,1)"><rect fill="#ffffff" stroke="none" x="280" y="844" width="159" height="45"/></g><g transform="translate(-222,-54) scale(1,1)"><path fill="none" stroke="#000000" d="M 280 844 L 439 844 L 439 889 L 280 889 L 280 844 Z Z" stroke-miterlimit="10"/></g><g transform="translate(-222,-54) scale(1,1)"><g><path fill="none" stroke="none"/><text fill="#000000" stroke="none" font-family="Arial" font-size="13px" font-style="normal" font-weight="normal" text-decoration="none" x="311.08642578125" y="866.5">Save it on empty</text><text fill="#000000" stroke="none" font-family="Arial" font-size="13px" font-style="normal" font-weight="normal" text-decoration="none" x="339.990478515625" y="879.5">bitmap</text></g></g><g transform="translate(-222,-54) scale(1,1)"><path fill="#ffffff" stroke="none" d="M 295 977.5 L 359.5380859375 926 L 424.076171875 977.5 L 359.5380859375 1029 L 295 977.5"/></g><g transform="translate(-222,-54) scale(1,1)"><path fill="none" stroke="#000000" d="M 295 977.5 L 359.5380859375 926 L 424.076171875 977.5 L 359.5380859375 1029 L 295 977.5 L 295 977.5" stroke-miterlimit="10"/></g><g transform="translate(-222,-54) scale(1,1)"><g><path fill="none" stroke="none"/><text fill="#000000" stroke="none" font-family="Arial" font-size="13px" font-style="normal" font-weight="normal" text-decoration="none" x="331.351318359375" y="964.5">Last point</text><text fill="#000000" stroke="none" font-family="Arial" font-size="13px" font-style="normal" font-weight="normal" text-decoration="none" x="354.1171875" y="977.5">of</text><text fill="#000000" stroke="none" font-family="Arial" font-size="13px" font-style="normal" font-weight="normal" text-decoration="none" x="327.01904296875" y="990.5">mandelbrot</text><text fill="#000000" stroke="none" font-family="Arial" font-size="13px" font-style="normal" font-weight="normal" text-decoration="none" x="338.22900390625" y="1003.5">matrix?</text></g></g><g transform="translate(-222,-54) scale(1,1)"><path fill="#ffffff" stroke="none" d="M 309 1066 L 435 1066 L 410 1111 L 284 1111 L 309 1066"/></g><g transform="translate(-222,-54) scale(1,1)"><path fill="none" stroke="#000000" d="M 309 1066 L 435 1066 L 410 1111 L 284 1111 L 309 1066 L 309 1066" stroke-miterlimit="10"/></g><g transform="translate(-222,-54) scale(1,1)"><g><path fill="none" stroke="none"/><text fill="#000000" stroke="none" font-family="Arial" font-size="13px" font-style="normal" font-weight="normal" text-decoration="none" x="323.02001953125" y="1088.5">Write bitmap</text><text fill="#000000" stroke="none" font-family="Arial" font-size="13px" font-style="normal" font-weight="normal" text-decoration="none" x="344.325927734375" y="1101.5">in file</text></g></g><g transform="translate(-222,-54) scale(1,1)"><rect fill="#ffffff" stroke="none" x="284" y="1214" width="151" height="55"/></g><g transform="translate(-222,-54) scale(1,1)"><path fill="none" stroke="#000000" d="M 284 1214 L 435 1214 L 435 1269 L 284 1269 L 284 1214 Z Z" stroke-miterlimit="10"/></g><g transform="translate(-222,-54) scale(1,1)"><g><path fill="none" stroke="none"/><text fill="#000000" stroke="none" font-family="Arial" font-size="13px" font-style="normal" font-weight="normal" text-decoration="none" x="305.6591796875" y="1236.5">Close file and data</text><text fill="#000000" stroke="none" font-family="Arial" font-size="13px" font-style="normal" font-weight="normal" text-decoration="none" x="338.181396484375" y="1249.5">release</text></g></g><g transform="translate(-222,-54) scale(1,1)"><path fill="#ffffff" stroke="none" d="M 324.5 1306 L 394.5 1306 Q 411 1306 411 1322.5 L 411 1321.5 Q 411 1338 394.5 1338 L 324.5 1338 Q 308 1338 308 1321.5 L 308 1322.5 Q 308 1306 324.5 1306 Z"/></g><g transform="translate(-222,-54) scale(1,1)"><path fill="none" stroke="#000000" d="M 324.5 1306 L 394.5 1306 Q 411 1306 411 1322.5 L 411 1321.5 Q 411 1338 394.5 1338 L 324.5 1338 Q 308 1338 308 1321.5 L 308 1322.5 Q 308 1306 324.5 1306 Z" stroke-miterlimit="10"/></g><g transform="translate(-222,-54) scale(1,1)"><g><path fill="none" stroke="none"/><text fill="#000000" stroke="none" font-family="Arial" font-size="13px" font-style="normal" font-weight="normal" text-decoration="none" x="345.7763671875" y="1328.5">END</text></g></g><g transform="translate(-222,-54) scale(1,1)"><path fill="#ffffff" stroke="none" d="M 304 339.5 L 360.58447265625 301 L 417.1689453125 339.5 L 360.58447265625 378 L 304 339.5"/></g><g transform="translate(-222,-54) scale(1,1)"><path fill="none" stroke="#000000" d="M 304 339.5 L 360.58447265625 301 L 417.1689453125 339.5 L 360.58447265625 378 L 304 339.5 L 304 339.5" stroke-miterlimit="10"/></g><g transform="translate(-222,-54) scale(1,1)"><g><path fill="none" stroke="none"/><text fill="#000000" stroke="none" font-family="Arial" font-size="13px" font-style="normal" font-weight="normal" text-decoration="none" x="348.660400390625" y="333">Can</text><text fill="#000000" stroke="none" font-family="Arial" font-size="13px" font-style="normal" font-weight="normal" text-decoration="none" x="346.12451171875" y="346">open</text><text fill="#000000" stroke="none" font-family="Arial" font-size="13px" font-style="normal" font-weight="normal" text-decoration="none" x="348.660400390625" y="359">file?</text></g></g><g transform="translate(-222,-54) scale(1,1)"><rect fill="#ffffff" stroke="none" x="520" y="320" width="183" height="45"/></g><g transform="translate(-222,-54) scale(1,1)"><path fill="none" stroke="#000000" d="M 520 320 L 703 320 L 703 365 L 520 365 L 520 320 Z Z" stroke-miterlimit="10"/></g><g transform="translate(-222,-54) scale(1,1)"><path fill="none" stroke="#000000" d="M 525 320 L 525 365" stroke-miterlimit="10"/></g><g transform="translate(-222,-54) scale(1,1)"><path fill="none" stroke="#000000" d="M 698 320 L 698 365" stroke-miterlimit="10"/></g><g transform="translate(-222,-54) scale(1,1)"><g><path fill="none" stroke="none"/><text fill="#000000" stroke="none" font-family="Arial" font-size="13px" font-style="normal" font-weight="normal" text-decoration="none" x="536.025390625" y="342.5">Say "can not open file" and</text><text fill="#000000" stroke="none" font-family="Arial" font-size="13px" font-style="normal" font-weight="normal" text-decoration="none" x="589.4345703125" y="355.5">return -1</text></g></g><g transform="translate(-222,-54) scale(1,1)"><path fill="none" stroke="#000000" d="M 417 336 L 520 336" stroke-miterlimit="10"/></g><g transform="translate(-222,-54) scale(1,1)"><path fill="#000000" stroke="none" d="M 509.83732514237585 340.209517756016 L 520 336 L 509.83732514237585 331.790482243984"/></g><g transform="translate(-222,-54) scale(1,1)"><path fill="none" stroke="#000000" d="M 509.83732514237585 340.209517756016 L 520 336 L 509.83732514237585 331.790482243984 L 509.83732514237585 340.209517756016" stroke-miterlimit="10"/></g><g transform="translate(-222,-54) scale(1,1)"><g><path fill="none" stroke="none"/><text fill="#000000" stroke="none" font-family="Arial" font-size="13px" font-style="normal" font-weight="normal" text-decoration="none" x="458.5" y="327.5">NO</text></g></g><g transform="translate(-222,-54) scale(1,1)"><path fill="#ffffff" stroke="none" d="M 345 1162.5 C 345 1154.4918704 351.4918704 1148 359.5 1148 C 367.5081296 1148 374 1154.4918704 374 1162.5 C 374 1170.5081296 367.5081296 1177 359.5 1177 C 351.4918704 1177 345 1170.5081296 345 1162.5 Z"/></g><g transform="translate(-222,-54) scale(1,1)"><path fill="none" stroke="#000000" d="M 345 1162.5 C 345 1154.4918704 351.4918704 1148 359.5 1148 C 367.5081296 1148 374 1154.4918704 374 1162.5 C 374 1170.5081296 367.5081296 1177 359.5 1177 C 351.4918704 1177 345 1170.5081296 345 1162.5 Z" stroke-miterlimit="10"/></g><g transform="translate(-222,-54) scale(1,1)"><path fill="none" stroke="#000000" d="M 359 1148 L 359 1177" stroke-miterlimit="10"/></g><g transform="translate(-222,-54) scale(1,1)"><path fill="none" stroke="#000000" d="M 345 1162 L 374 1162" stroke-miterlimit="10"/></g><g transform="translate(-222,-54) scale(1,1)"><path fill="none" stroke="#000000" d="M 598 365 L 598 1156 M 598 1156 A 8 8 0 0 1 590 1164 L 374 1164" stroke-miterlimit="10"/></g><g transform="translate(-222,-54) scale(1,1)"><path fill="#000000" stroke="none" d="M 384.16267485762415 1159.7904822439841 L 374 1164 L 384.16267485762415 1168.2095177560159"/></g><g transform="translate(-222,-54) scale(1,1)"><path fill="none" stroke="#000000" d="M 384.16267485762415 1159.7904822439841 L 374 1164 L 384.16267485762415 1168.2095177560159 L 384.16267485762415 1159.7904822439841" stroke-miterlimit="10"/></g><g transform="translate(-222,-54) scale(1,1)"><path fill="none" stroke="#000000" d="M 363 96 L 363 133" stroke-miterlimit="10"/></g><g transform="translate(-222,-54) scale(1,1)"><path fill="#000000" stroke="none" d="M 358.790482243984 122.83732514237585 L 363 133 L 367.209517756016 122.83732514237585"/></g><g transform="translate(-222,-54) scale(1,1)"><path fill="none" stroke="#000000" d="M 358.790482243984 122.83732514237585 L 363 133 L 367.209517756016 122.83732514237585 L 358.790482243984 122.83732514237585" stroke-miterlimit="10"/></g><g transform="translate(-222,-54) scale(1,1)"><path fill="none" stroke="#000000" d="M 363 180 L 363 217" stroke-miterlimit="10"/></g><g transform="translate(-222,-54) scale(1,1)"><path fill="#000000" stroke="none" d="M 358.790482243984 206.83732514237585 L 363 217 L 367.209517756016 206.83732514237585"/></g><g transform="translate(-222,-54) scale(1,1)"><path fill="none" stroke="#000000" d="M 358.790482243984 206.83732514237585 L 363 217 L 367.209517756016 206.83732514237585 L 358.790482243984 206.83732514237585" stroke-miterlimit="10"/></g><g transform="translate(-222,-54) scale(1,1)"><path fill="none" stroke="#000000" d="M 363 264 L 363 301" stroke-miterlimit="10"/></g><g transform="translate(-222,-54) scale(1,1)"><path fill="#000000" stroke="none" d="M 358.790482243984 290.83732514237585 L 363 301 L 367.209517756016 290.83732514237585"/></g><g transform="translate(-222,-54) scale(1,1)"><path fill="none" stroke="#000000" d="M 358.790482243984 290.83732514237585 L 363 301 L 367.209517756016 290.83732514237585 L 358.790482243984 290.83732514237585" stroke-miterlimit="10"/></g><g transform="translate(-222,-54) scale(1,1)"><path fill="none" stroke="#000000" d="M 363 378 L 363 415" stroke-miterlimit="10"/></g><g transform="translate(-222,-54) scale(1,1)"><path fill="#000000" stroke="none" d="M 358.790482243984 404.83732514237585 L 363 415 L 367.209517756016 404.83732514237585"/></g><g transform="translate(-222,-54) scale(1,1)"><path fill="none" stroke="#000000" d="M 358.790482243984 404.83732514237585 L 363 415 L 367.209517756016 404.83732514237585 L 358.790482243984 404.83732514237585" stroke-miterlimit="10"/></g><g transform="translate(-222,-54) scale(1,1)"><path fill="none" stroke="#000000" d="M 363 462 L 363 499" stroke-miterlimit="10"/></g><g transform="translate(-222,-54) scale(1,1)"><path fill="#000000" stroke="none" d="M 358.790482243984 488.83732514237585 L 363 499 L 367.209517756016 488.83732514237585"/></g><g transform="translate(-222,-54) scale(1,1)"><path fill="none" stroke="#000000" d="M 358.790482243984 488.83732514237585 L 363 499 L 367.209517756016 488.83732514237585 L 358.790482243984 488.83732514237585" stroke-miterlimit="10"/></g><g transform="translate(-222,-54) scale(1,1)"><path fill="#ffffff" stroke="none" d="M 345 613.5 C 345 605.4918704 351.4918704 599 359.5 599 C 367.5081296 599 374 605.4918704 374 613.5 C 374 621.5081296 367.5081296 628 359.5 628 C 351.4918704 628 345 621.5081296 345 613.5 Z"/></g><g transform="translate(-222,-54) scale(1,1)"><path fill="none" stroke="#000000" d="M 345 613.5 C 345 605.4918704 351.4918704 599 359.5 599 C 367.5081296 599 374 605.4918704 374 613.5 C 374 621.5081296 367.5081296 628 359.5 628 C 351.4918704 628 345 621.5081296 345 613.5 Z" stroke-miterlimit="10"/></g><g transform="translate(-222,-54) scale(1,1)"><path fill="none" stroke="#000000" d="M 359 599 L 359 628" stroke-miterlimit="10"/></g><g transform="translate(-222,-54) scale(1,1)"><path fill="none" stroke="#000000" d="M 345 613 L 374 613" stroke-miterlimit="10"/></g><g transform="translate(-222,-54) scale(1,1)"><path fill="none" stroke="#000000" d="M 359 562 L 359 599" stroke-miterlimit="10"/></g><g transform="translate(-222,-54) scale(1,1)"><path fill="#000000" stroke="none" d="M 354.790482243984 588.8373251423759 L 359 599 L 363.209517756016 588.8373251423759"/></g><g transform="translate(-222,-54) scale(1,1)"><path fill="none" stroke="#000000" d="M 354.790482243984 588.8373251423759 L 359 599 L 363.209517756016 588.8373251423759 L 354.790482243984 588.8373251423759" stroke-miterlimit="10"/></g><g transform="translate(-222,-54) scale(1,1)"><path fill="none" stroke="#000000" d="M 359 628 L 359 665" stroke-miterlimit="10"/></g><g transform="translate(-222,-54) scale(1,1)"><path fill="#000000" stroke="none" d="M 354.790482243984 654.8373251423759 L 359 665 L 363.209517756016 654.8373251423759"/></g><g transform="translate(-222,-54) scale(1,1)"><path fill="none" stroke="#000000" d="M 354.790482243984 654.8373251423759 L 359 665 L 363.209517756016 654.8373251423759 L 354.790482243984 654.8373251423759" stroke-miterlimit="10"/></g><g transform="translate(-222,-54) scale(1,1)"><path fill="none" stroke="#000000" d="M 359 712 L 359 749" stroke-miterlimit="10"/></g><g transform="translate(-222,-54) scale(1,1)"><path fill="#000000" stroke="none" d="M 354.790482243984 738.8373251423759 L 359 749 L 363.209517756016 738.8373251423759"/></g><g transform="translate(-222,-54) scale(1,1)"><path fill="none" stroke="#000000" d="M 354.790482243984 738.8373251423759 L 359 749 L 363.209517756016 738.8373251423759 L 354.790482243984 738.8373251423759" stroke-miterlimit="10"/></g><g transform="translate(-222,-54) scale(1,1)"><path fill="none" stroke="#000000" d="M 359 807 L 359 844" stroke-miterlimit="10"/></g><g transform="translate(-222,-54) scale(1,1)"><path fill="#000000" stroke="none" d="M 354.790482243984 833.8373251423759 L 359 844 L 363.209517756016 833.8373251423759"/></g><g transform="translate(-222,-54) scale(1,1)"><path fill="none" stroke="#000000" d="M 354.790482243984 833.8373251423759 L 359 844 L 363.209517756016 833.8373251423759 L 354.790482243984 833.8373251423759" stroke-miterlimit="10"/></g><g transform="translate(-222,-54) scale(1,1)"><path fill="none" stroke="#000000" d="M 359 889 L 359 926" stroke-miterlimit="10"/></g><g transform="translate(-222,-54) scale(1,1)"><path fill="#000000" stroke="none" d="M 354.790482243984 915.8373251423759 L 359 926 L 363.209517756016 915.8373251423759"/></g><g transform="translate(-222,-54) scale(1,1)"><path fill="none" stroke="#000000" d="M 354.790482243984 915.8373251423759 L 359 926 L 363.209517756016 915.8373251423759 L 354.790482243984 915.8373251423759" stroke-miterlimit="10"/></g><g transform="translate(-222,-54) scale(1,1)"><path fill="none" stroke="#000000" d="M 295 976 L 240 976 M 240 976 A 8 8 0 0 1 232 968 L 232 616 M 232 616 A 8 8 0 0 1 240 608 L 345 608" stroke-miterlimit="10"/></g><g transform="translate(-222,-54) scale(1,1)"><path fill="#000000" stroke="none" d="M 334.83732514237585 612.209517756016 L 345 608 L 334.83732514237585 603.790482243984"/></g><g transform="translate(-222,-54) scale(1,1)"><path fill="none" stroke="#000000" d="M 334.83732514237585 612.209517756016 L 345 608 L 334.83732514237585 603.790482243984 L 334.83732514237585 612.209517756016" stroke-miterlimit="10"/></g><g transform="translate(-222,-54) scale(1,1)"><g><path fill="none" stroke="none"/><text fill="#000000" stroke="none" font-family="Arial" font-size="13px" font-style="normal" font-weight="normal" text-decoration="none" x="263.5" y="963.5">NO</text></g></g><g transform="translate(-222,-54) scale(1,1)"><path fill="none" stroke="#000000" d="M 359 1029 L 359 1066" stroke-miterlimit="10"/></g><g transform="translate(-222,-54) scale(1,1)"><path fill="#000000" stroke="none" d="M 354.790482243984 1055.837325142376 L 359 1066 L 363.209517756016 1055.837325142376"/></g><g transform="translate(-222,-54) scale(1,1)"><path fill="none" stroke="#000000" d="M 354.790482243984 1055.837325142376 L 359 1066 L 363.209517756016 1055.837325142376 L 354.790482243984 1055.837325142376" stroke-miterlimit="10"/></g><g transform="translate(-222,-54) scale(1,1)"><path fill="none" stroke="#000000" d="M 359 1111 L 359 1148" stroke-miterlimit="10"/></g><g transform="translate(-222,-54) scale(1,1)"><path fill="#000000" stroke="none" d="M 354.790482243984 1137.837325142376 L 359 1148 L 363.209517756016 1137.837325142376"/></g><g transform="translate(-222,-54) scale(1,1)"><path fill="none" stroke="#000000" d="M 354.790482243984 1137.837325142376 L 359 1148 L 363.209517756016 1137.837325142376 L 354.790482243984 1137.837325142376" stroke-miterlimit="10"/></g><g transform="translate(-222,-54) scale(1,1)"><path fill="none" stroke="#000000" d="M 359 1177 L 359 1214" stroke-miterlimit="10"/></g><g transform="translate(-222,-54) scale(1,1)"><path fill="#000000" stroke="none" d="M 354.790482243984 1203.837325142376 L 359 1214 L 363.209517756016 1203.837325142376"/></g><g transform="translate(-222,-54) scale(1,1)"><path fill="none" stroke="#000000" d="M 354.790482243984 1203.837325142376 L 359 1214 L 363.209517756016 1203.837325142376 L 354.790482243984 1203.837325142376" stroke-miterlimit="10"/></g><g transform="translate(-222,-54) scale(1,1)"><path fill="none" stroke="#000000" d="M 359 1269 L 359 1306" stroke-miterlimit="10"/></g><g transform="translate(-222,-54) scale(1,1)"><path fill="#000000" stroke="none" d="M 354.790482243984 1295.837325142376 L 359 1306 L 363.209517756016 1295.837325142376"/></g><g transform="translate(-222,-54) scale(1,1)"><path fill="none" stroke="#000000" d="M 354.790482243984 1295.837325142376 L 359 1306 L 363.209517756016 1295.837325142376 L 354.790482243984 1295.837325142376" stroke-miterlimit="10"/></g><g transform="translate(-222,-54) scale(1,1)"><path fill="#ffffff" stroke="none" d="M 896 80 L 1076 80 L 1086 90 L 1086 127 L 896 127 L 896 80"/></g><g transform="translate(-222,-54) scale(1,1)"><path fill="none" stroke="#000000" d="M 896 80 L 1076 80 L 1086 90 L 1086 127 L 896 127 L 896 80 L 896 80" stroke-miterlimit="10"/></g><g transform="translate(-222,-54) scale(1,1)"><path fill="none" stroke="#000000" d="M 1076 80 L 1076 90 L 1086 90 L 1076 80" stroke-miterlimit="10"/></g><g transform="translate(-222,-54) scale(1,1)"><g><path fill="none" stroke="none"/><text fill="#000000" stroke="none" font-family="Arial" font-size="13px" font-style="normal" font-weight="normal" text-decoration="none" x="901" y="98">Use Montessoro's library for</text><text fill="#000000" stroke="none" font-family="Arial" font-size="13px" font-style="normal" font-weight="normal" text-decoration="none" x="901" y="111">bmp creation</text></g></g></g></svg>