<svg version="1.1" xmlns="http://www.w3.org/2000/svg" xmlns:xlink="http://www.w3.org/1999/xlink" width="619" height="761"><defs/><g><g transform="translate(-142,-110) scale(1,1)"><path fill="#ffffff" stroke="none" d="M 431.5 120 L 487.578125 120 Q 504.078125 120 504.078125 136.5 L 504.078125 135.5 Q 504.078125 152 487.578125 152 L 431.5 152 Q 415 152 415 135.5 L 415 136.5 Q 415 120 431.5 120 Z"/></g><g transform="translate(-142,-110) scale(1,1)"><path fill="none" stroke="#000000" d="M 431.5 120 L 487.578125 120 Q 504.078125 120 504.078125 136.5 L 504.078125 135.5 Q 504.078125 152 487.578125 152 L 431.5 152 Q 415 152 415 135.5 L 415 136.5 Q 415 120 431.5 120 Z" stroke-miterlimit="10"/></g><g transform="translate(-142,-110) scale(1,1)"><g><path fill="none" stroke="none"/><text fill="#000000" stroke="none" font-family="Arial" font-size="13px" font-style="normal" font-weight="normal" text-decoration="none" x="438.233154296875" y="142.5">START</text></g></g><g transform="translate(-142,-110) scale(1,1)"><path fill="#ffffff" stroke="none" d="M 395 180 L 555 180 L 523 227 L 363 227 L 395 180"/></g><g transform="translate(-142,-110) scale(1,1)"><path fill="none" stroke="#000000" d="M 395 180 L 555 180 L 523 227 L 363 227 L 395 180 L 395 180" stroke-miterlimit="10"/></g><g transform="translate(-142,-110) scale(1,1)"><g><path fill="none" stroke="none"/><text fill="#000000" stroke="none" font-family="Arial" font-size="13px" font-style="normal" font-weight="normal" text-decoration="none" x="408.0537109375" y="202.5">get complex point</text><text fill="#000000" stroke="none" font-family="Arial" font-size="13px" font-style="normal" font-weight="normal" text-decoration="none" x="446.530029296875" y="215.5">a+jb</text></g></g><g transform="translate(-142,-110) scale(1,1)"><rect fill="#ffffff" stroke="none" x="364" y="443" width="191" height="32"/></g><g transform="translate(-142,-110) scale(1,1)"><path fill="none" stroke="#000000" d="M 364 443 L 555 443 L 555 475 L 364 475 L 364 443 Z Z" stroke-miterlimit="10"/></g><g transform="translate(-142,-110) scale(1,1)"><g><path fill="none" stroke="none"/><text fill="#000000" stroke="none" font-family="Arial" font-size="13px" font-style="normal" font-weight="normal" text-decoration="none" x="391.938720703125" y="465.5">Starting from zn = 0+j0 </text></g></g><g transform="translate(-142,-110) scale(1,1)"><rect fill="#ffffff" stroke="none" x="364" y="503" width="191" height="32"/></g><g transform="translate(-142,-110) scale(1,1)"><path fill="none" stroke="#000000" d="M 364 503 L 555 503 L 555 535 L 364 535 L 364 503 Z Z" stroke-miterlimit="10"/></g><g transform="translate(-142,-110) scale(1,1)"><g><path fill="none" stroke="none"/><text fill="#000000" stroke="none" font-family="Arial" font-size="13px" font-style="normal" font-weight="normal" text-decoration="none" x="399.873291015625" y="525.5">zn+1 = zn * zn +a+jb</text></g></g><g transform="translate(-142,-110) scale(1,1)"><path fill="#ffffff" stroke="none" d="M 384 610.5 L 459.5 563 L 535 610.5 L 459.5 658 L 384 610.5"/></g><g transform="translate(-142,-110) scale(1,1)"><path fill="none" stroke="#000000" d="M 384 610.5 L 459.5 563 L 535 610.5 L 459.5 658 L 384 610.5 L 384 610.5" stroke-miterlimit="10"/></g><g transform="translate(-142,-110) scale(1,1)"><g><path fill="none" stroke="none"/><text fill="#000000" stroke="none" font-family="Arial" font-size="13px" font-style="normal" font-weight="normal" text-decoration="none" x="427.20947265625" y="617">|zn+1| &gt; 2?</text></g></g><g transform="translate(-142,-110) scale(1,1)"><rect fill="#ffffff" stroke="none" x="592" y="584" width="159" height="39"/></g><g transform="translate(-142,-110) scale(1,1)"><path fill="none" stroke="#000000" d="M 592 584 L 751 584 L 751 623 L 592 623 L 592 584 Z Z" stroke-miterlimit="10"/></g><g transform="translate(-142,-110) scale(1,1)"><g><path fill="none" stroke="none"/><text fill="#000000" stroke="none" font-family="Arial" font-size="13px" font-style="normal" font-weight="normal" text-decoration="none" x="642.951416015625" y="606.5">zn = zn+1</text></g></g><g transform="translate(-142,-110) scale(1,1)"><path fill="#ffffff" stroke="none" d="M 445 269.5 C 445 261.4918704 451.4918704 255 459.5 255 C 467.5081296 255 474 261.4918704 474 269.5 C 474 277.5081296 467.5081296 284 459.5 284 C 451.4918704 284 445 277.5081296 445 269.5 Z"/></g><g transform="translate(-142,-110) scale(1,1)"><path fill="none" stroke="#000000" d="M 445 269.5 C 445 261.4918704 451.4918704 255 459.5 255 C 467.5081296 255 474 261.4918704 474 269.5 C 474 277.5081296 467.5081296 284 459.5 284 C 451.4918704 284 445 277.5081296 445 269.5 Z" stroke-miterlimit="10"/></g><g transform="translate(-142,-110) scale(1,1)"><path fill="none" stroke="#000000" d="M 459 255 L 459 284" stroke-miterlimit="10"/></g><g transform="translate(-142,-110) scale(1,1)"><path fill="none" stroke="#000000" d="M 445 269 L 474 269" stroke-miterlimit="10"/></g><g transform="translate(-142,-110) scale(1,1)"><path fill="#ffffff" stroke="none" d="M 387 363.5 L 459 312 L 531 363.5 L 459 415 L 387 363.5"/></g><g transform="translate(-142,-110) scale(1,1)"><path fill="none" stroke="#000000" d="M 387 363.5 L 459 312 L 531 363.5 L 459 415 L 387 363.5 L 387 363.5" stroke-miterlimit="10"/></g><g transform="translate(-142,-110) scale(1,1)"><g><path fill="none" stroke="none"/><text fill="#000000" stroke="none" font-family="Arial" font-size="13px" font-style="normal" font-weight="normal" text-decoration="none" x="438.77001953125" y="350.5">current</text><text fill="#000000" stroke="none" font-family="Arial" font-size="13px" font-style="normal" font-weight="normal" text-decoration="none" x="430.273681640625" y="363.5">iteration &gt;</text><text fill="#000000" stroke="none" font-family="Arial" font-size="13px" font-style="normal" font-weight="normal" text-decoration="none" x="444.91455078125" y="376.5">MAX</text><text fill="#000000" stroke="none" font-family="Arial" font-size="13px" font-style="normal" font-weight="normal" text-decoration="none" x="432.260498046875" y="389.5">iteration?</text></g></g><g transform="translate(-142,-110) scale(1,1)"><path fill="#ffffff" stroke="none" d="M 184 704 L 344 704 L 312 743 L 152 743 L 184 704"/></g><g transform="translate(-142,-110) scale(1,1)"><path fill="none" stroke="#000000" d="M 184 704 L 344 704 L 312 743 L 152 743 L 184 704 L 184 704" stroke-miterlimit="10"/></g><g transform="translate(-142,-110) scale(1,1)"><g><path fill="none" stroke="none"/><text fill="#000000" stroke="none" font-family="Arial" font-size="13px" font-style="normal" font-weight="normal" text-decoration="none" x="225.59912109375" y="726.5">return 0</text></g></g><g transform="translate(-142,-110) scale(1,1)"><path fill="#ffffff" stroke="none" d="M 398 699 L 552 699 L 522 744 L 368 744 L 398 699"/></g><g transform="translate(-142,-110) scale(1,1)"><path fill="none" stroke="#000000" d="M 398 699 L 552 699 L 522 744 L 368 744 L 398 699 L 398 699" stroke-miterlimit="10"/></g><g transform="translate(-142,-110) scale(1,1)"><g><path fill="none" stroke="none"/><text fill="#000000" stroke="none" font-family="Arial" font-size="13px" font-style="normal" font-weight="normal" text-decoration="none" x="420.984130859375" y="721.5">return current</text><text fill="#000000" stroke="none" font-family="Arial" font-size="13px" font-style="normal" font-weight="normal" text-decoration="none" x="436.87548828125" y="734.5">iteration</text></g></g><g transform="translate(-142,-110) scale(1,1)"><path fill="#ffffff" stroke="none" d="M 445 786.5 C 445 778.4918704 451.4918704 772 459.5 772 C 467.5081296 772 474 778.4918704 474 786.5 C 474 794.5081296 467.5081296 801 459.5 801 C 451.4918704 801 445 794.5081296 445 786.5 Z"/></g><g transform="translate(-142,-110) scale(1,1)"><path fill="none" stroke="#000000" d="M 445 786.5 C 445 778.4918704 451.4918704 772 459.5 772 C 467.5081296 772 474 778.4918704 474 786.5 C 474 794.5081296 467.5081296 801 459.5 801 C 451.4918704 801 445 794.5081296 445 786.5 Z" stroke-miterlimit="10"/></g><g transform="translate(-142,-110) scale(1,1)"><path fill="none" stroke="#000000" d="M 459 772 L 459 801" stroke-miterlimit="10"/></g><g transform="translate(-142,-110) scale(1,1)"><path fill="none" stroke="#000000" d="M 445 786 L 474 786" stroke-miterlimit="10"/></g><g transform="translate(-142,-110) scale(1,1)"><path fill="#ffffff" stroke="none" d="M 431.5 829 L 487.578125 829 Q 504.078125 829 504.078125 845.5 L 504.078125 844.5 Q 504.078125 861 487.578125 861 L 431.5 861 Q 415 861 415 844.5 L 415 845.5 Q 415 829 431.5 829 Z"/></g><g transform="translate(-142,-110) scale(1,1)"><path fill="none" stroke="#000000" d="M 431.5 829 L 487.578125 829 Q 504.078125 829 504.078125 845.5 L 504.078125 844.5 Q 504.078125 861 487.578125 861 L 431.5 861 Q 415 861 415 844.5 L 415 845.5 Q 415 829 431.5 829 Z" stroke-miterlimit="10"/></g><g transform="translate(-142,-110) scale(1,1)"><g><path fill="none" stroke="none"/><text fill="#000000" stroke="none" font-family="Arial" font-size="13px" font-style="normal" font-weight="normal" text-decoration="none" x="445.8154296875" y="851.5">END</text></g></g><g transform="translate(-142,-110) scale(1,1)"><path fill="none" stroke="#000000" d="M 459 152 L 459 180" stroke-miterlimit="10"/></g><g transform="translate(-142,-110) scale(1,1)"><path fill="#000000" stroke="none" d="M 454.790482243984 169.83732514237585 L 459 180 L 463.209517756016 169.83732514237585"/></g><g transform="translate(-142,-110) scale(1,1)"><path fill="none" stroke="#000000" d="M 454.790482243984 169.83732514237585 L 459 180 L 463.209517756016 169.83732514237585 L 454.790482243984 169.83732514237585" stroke-miterlimit="10"/></g><g transform="translate(-142,-110) scale(1,1)"><path fill="none" stroke="#000000" d="M 459 227 L 459 255" stroke-miterlimit="10"/></g><g transform="translate(-142,-110) scale(1,1)"><path fill="#000000" stroke="none" d="M 454.790482243984 244.83732514237585 L 459 255 L 463.209517756016 244.83732514237585"/></g><g transform="translate(-142,-110) scale(1,1)"><path fill="none" stroke="#000000" d="M 454.790482243984 244.83732514237585 L 459 255 L 463.209517756016 244.83732514237585 L 454.790482243984 244.83732514237585" stroke-miterlimit="10"/></g><g transform="translate(-142,-110) scale(1,1)"><path fill="none" stroke="#000000" d="M 459 284 L 459 312" stroke-miterlimit="10"/></g><g transform="translate(-142,-110) scale(1,1)"><path fill="#000000" stroke="none" d="M 454.790482243984 301.83732514237585 L 459 312 L 463.209517756016 301.83732514237585"/></g><g transform="translate(-142,-110) scale(1,1)"><path fill="none" stroke="#000000" d="M 454.790482243984 301.83732514237585 L 459 312 L 463.209517756016 301.83732514237585 L 454.790482243984 301.83732514237585" stroke-miterlimit="10"/></g><g transform="translate(-142,-110) scale(1,1)"><path fill="none" stroke="#000000" d="M 459 415 L 459 443" stroke-miterlimit="10"/></g><g transform="translate(-142,-110) scale(1,1)"><path fill="#000000" stroke="none" d="M 454.790482243984 432.83732514237585 L 459 443 L 463.209517756016 432.83732514237585"/></g><g transform="translate(-142,-110) scale(1,1)"><path fill="none" stroke="#000000" d="M 454.790482243984 432.83732514237585 L 459 443 L 463.209517756016 432.83732514237585 L 454.790482243984 432.83732514237585" stroke-miterlimit="10"/></g><g transform="translate(-142,-110) scale(1,1)"><g><path fill="none" stroke="none"/><text fill="#000000" stroke="none" font-family="Arial" font-size="13px" font-style="normal" font-weight="normal" text-decoration="none" x="471.5" y="434.5">NO</text></g></g><g transform="translate(-142,-110) scale(1,1)"><path fill="none" stroke="#000000" d="M 459 475 L 459 503" stroke-miterlimit="10"/></g><g transform="translate(-142,-110) scale(1,1)"><path fill="#000000" stroke="none" d="M 454.790482243984 492.83732514237585 L 459 503 L 463.209517756016 492.83732514237585"/></g><g transform="translate(-142,-110) scale(1,1)"><path fill="none" stroke="#000000" d="M 454.790482243984 492.83732514237585 L 459 503 L 463.209517756016 492.83732514237585 L 454.790482243984 492.83732514237585" stroke-miterlimit="10"/></g><g transform="translate(-142,-110) scale(1,1)"><path fill="none" stroke="#000000" d="M 459 535 L 459 563" stroke-miterlimit="10"/></g><g transform="translate(-142,-110) scale(1,1)"><path fill="#000000" stroke="none" d="M 454.790482243984 552.8373251423759 L 459 563 L 463.209517756016 552.8373251423759"/></g><g transform="translate(-142,-110) scale(1,1)"><path fill="none" stroke="#000000" d="M 454.790482243984 552.8373251423759 L 459 563 L 463.209517756016 552.8373251423759 L 454.790482243984 552.8373251423759" stroke-miterlimit="10"/></g><g transform="translate(-142,-110) scale(1,1)"><path fill="none" stroke="#000000" d="M 459 658 L 459 699" stroke-miterlimit="10"/></g><g transform="translate(-142,-110) scale(1,1)"><path fill="#000000" stroke="none" d="M 454.790482243984 688.8373251423759 L 459 699 L 463.209517756016 688.8373251423759"/></g><g transform="translate(-142,-110) scale(1,1)"><path fill="none" stroke="#000000" d="M 454.790482243984 688.8373251423759 L 459 699 L 463.209517756016 688.8373251423759 L 454.790482243984 688.8373251423759" stroke-miterlimit="10"/></g><g transform="translate(-142,-110) scale(1,1)"><path fill="none" stroke="#000000" d="M 535 607 L 592 607" stroke-miterlimit="10"/></g><g transform="translate(-142,-110) scale(1,1)"><path fill="#000000" stroke="none" d="M 581.8373251423759 611.209517756016 L 592 607 L 581.8373251423758 602.790482243984"/></g><g transform="translate(-142,-110) scale(1,1)"><path fill="none" stroke="#000000" d="M 581.8373251423759 611.209517756016 L 592 607 L 581.8373251423758 602.790482243984 L 581.8373251423759 611.209517756016" stroke-miterlimit="10"/></g><g transform="translate(-142,-110) scale(1,1)"><g><path fill="none" stroke="none"/><text fill="#000000" stroke="none" font-family="Arial" font-size="13px" font-style="normal" font-weight="normal" text-decoration="none" x="553.5" y="598.5">NO</text></g></g><g transform="translate(-142,-110) scale(1,1)"><path fill="none" stroke="#000000" d="M 688 584 L 688 272 M 688 272 A 8 8 0 0 0 680 264 L 474 264" stroke-miterlimit="10"/></g><g transform="translate(-142,-110) scale(1,1)"><path fill="#000000" stroke="none" d="M 484.16267485762415 259.790482243984 L 474 264 L 484.16267485762415 268.209517756016"/></g><g transform="translate(-142,-110) scale(1,1)"><path fill="none" stroke="#000000" d="M 484.16267485762415 259.790482243984 L 474 264 L 484.16267485762415 268.209517756016 L 484.16267485762415 259.790482243984" stroke-miterlimit="10"/></g><g transform="translate(-142,-110) scale(1,1)"><path fill="none" stroke="#000000" d="M 460 744 L 460 772" stroke-miterlimit="10"/></g><g transform="translate(-142,-110) scale(1,1)"><path fill="#000000" stroke="none" d="M 455.790482243984 761.8373251423759 L 460 772 L 464.209517756016 761.8373251423759"/></g><g transform="translate(-142,-110) scale(1,1)"><path fill="none" stroke="#000000" d="M 455.790482243984 761.8373251423759 L 460 772 L 464.209517756016 761.8373251423759 L 455.790482243984 761.8373251423759" stroke-miterlimit="10"/></g><g transform="translate(-142,-110) scale(1,1)"><path fill="none" stroke="#000000" d="M 248 743 L 248 774 M 248 774 A 8 8 0 0 0 256 782 L 445 782" stroke-miterlimit="10"/></g><g transform="translate(-142,-110) scale(1,1)"><path fill="#000000" stroke="none" d="M 434.83732514237585 786.209517756016 L 445 782 L 434.83732514237585 777.790482243984"/></g><g transform="translate(-142,-110) scale(1,1)"><path fill="none" stroke="#000000" d="M 434.83732514237585 786.209517756016 L 445 782 L 434.83732514237585 777.790482243984 L 434.83732514237585 786.209517756016" stroke-miterlimit="10"/></g><g transform="translate(-142,-110) scale(1,1)"><path fill="none" stroke="#000000" d="M 459 801 L 459 829" stroke-miterlimit="10"/></g><g transform="translate(-142,-110) scale(1,1)"><path fill="#000000" stroke="none" d="M 454.790482243984 818.8373251423759 L 459 829 L 463.209517756016 818.8373251423759"/></g><g transform="translate(-142,-110) scale(1,1)"><path fill="none" stroke="#000000" d="M 454.790482243984 818.8373251423759 L 459 829 L 463.209517756016 818.8373251423759 L 454.790482243984 818.8373251423759" stroke-miterlimit="10"/></g><g transform="translate(-142,-110) scale(1,1)"><path fill="none" stroke="#000000" d="M 387 360 L 256 360 M 256 360 A 8 8 0 0 0 248 368 L 248 704" stroke-miterlimit="10"/></g><g transform="translate(-142,-110) scale(1,1)"><path fill="#000000" stroke="none" d="M 243.790482243984 693.8373251423759 L 248 704 L 252.209517756016 693.8373251423759"/></g><g transform="translate(-142,-110) scale(1,1)"><path fill="none" stroke="#000000" d="M 243.790482243984 693.8373251423759 L 248 704 L 252.209517756016 693.8373251423759 L 243.790482243984 693.8373251423759" stroke-miterlimit="10"/></g></g></svg>