<svg version="1.1" xmlns="http://www.w3.org/2000/svg" xmlns:xlink="http://www.w3.org/1999/xlink" width="724" height="1036"><defs/><g><g transform="translate(-62,-22) scale(1,1)"><path fill="#ffffff" stroke="none" d="M 295.5 32 L 351.578125 32 Q 368.078125 32 368.078125 48.5 L 368.078125 47.5 Q 368.078125 64 351.578125 64 L 295.5 64 Q 279 64 279 47.5 L 279 48.5 Q 279 32 295.5 32 Z"/></g><g transform="translate(-62,-22) scale(1,1)"><path fill="none" stroke="#000000" d="M 295.5 32 L 351.578125 32 Q 368.078125 32 368.078125 48.5 L 368.078125 47.5 Q 368.078125 64 351.578125 64 L 295.5 64 Q 279 64 279 47.5 L 279 48.5 Q 279 32 295.5 32 Z" stroke-miterlimit="10"/></g><g transform="translate(-62,-22) scale(1,1)"><g><path fill="none" stroke="none"/><text fill="#000000" stroke="none" font-family="Arial" font-size="13px" font-style="normal" font-weight="normal" text-decoration="none" x="302.233154296875" y="54.5">START</text></g></g><g transform="translate(-62,-22) scale(1,1)"><rect fill="#ffffff" stroke="none" x="247" y="101" width="152" height="45"/></g><g transform="translate(-62,-22) scale(1,1)"><path fill="none" stroke="#000000" d="M 247 101 L 399 101 L 399 146 L 247 146 L 247 101 Z Z" stroke-miterlimit="10"/></g><g transform="translate(-62,-22) scale(1,1)"><g><path fill="none" stroke="none"/><text fill="#000000" stroke="none" font-family="Arial" font-size="13px" font-style="normal" font-weight="normal" text-decoration="none" x="259.77099609375" y="123.5">get image dimensions</text></g></g><g transform="translate(-62,-22) scale(1,1)"><rect fill="#ffffff" stroke="none" x="248" y="279" width="151" height="45"/></g><g transform="translate(-62,-22) scale(1,1)"><path fill="none" stroke="#000000" d="M 248 279 L 399 279 L 399 324 L 248 324 L 248 279 Z Z" stroke-miterlimit="10"/></g><g transform="translate(-62,-22) scale(1,1)"><g><path fill="none" stroke="none"/><text fill="#000000" stroke="none" font-family="Arial" font-size="13px" font-style="normal" font-weight="normal" text-decoration="none" x="262.44189453125" y="301.5">Allocate dynamacally</text><text fill="#000000" stroke="none" font-family="Arial" font-size="13px" font-style="normal" font-weight="normal" text-decoration="none" x="271.135009765625" y="314.5">memory for matrix</text></g></g><g transform="translate(-62,-22) scale(1,1)"><rect fill="#ffffff" stroke="none" x="248" y="427" width="151" height="47"/></g><g transform="translate(-62,-22) scale(1,1)"><path fill="none" stroke="#000000" d="M 248 427 L 399 427 L 399 474 L 248 474 L 248 427 Z Z" stroke-miterlimit="10"/></g><g transform="translate(-62,-22) scale(1,1)"><g><path fill="none" stroke="none"/><text fill="#000000" stroke="none" font-family="Arial" font-size="13px" font-style="normal" font-weight="normal" text-decoration="none" x="269.656005859375" y="449.5">Select one point of</text><text fill="#000000" stroke="none" font-family="Arial" font-size="13px" font-style="normal" font-weight="normal" text-decoration="none" x="305.79638671875" y="462.5">image</text></g></g><g transform="translate(-62,-22) scale(1,1)"><rect fill="#ffffff" stroke="none" x="248" y="511" width="151" height="47"/></g><g transform="translate(-62,-22) scale(1,1)"><path fill="none" stroke="#000000" d="M 248 511 L 399 511 L 399 558 L 248 558 L 248 511 Z Z" stroke-miterlimit="10"/></g><g transform="translate(-62,-22) scale(1,1)"><g><path fill="none" stroke="none"/><text fill="#000000" stroke="none" font-family="Arial" font-size="13px" font-style="normal" font-weight="normal" text-decoration="none" x="267.13916015625" y="533.5">Scale it on complex</text><text fill="#000000" stroke="none" font-family="Arial" font-size="13px" font-style="normal" font-weight="normal" text-decoration="none" x="307.595947265625" y="546.5">plane</text></g></g><g transform="translate(-62,-22) scale(1,1)"><rect fill="#ffffff" stroke="none" x="248" y="592" width="151" height="48"/></g><g transform="translate(-62,-22) scale(1,1)"><path fill="none" stroke="#000000" d="M 248 592 L 399 592 L 399 640 L 248 640 L 248 592 Z Z" stroke-miterlimit="10"/></g><g transform="translate(-62,-22) scale(1,1)"><g><path fill="none" stroke="none"/><text fill="#000000" stroke="none" font-family="Arial" font-size="13px" font-style="normal" font-weight="normal" text-decoration="none" x="276.171875" y="614.5">Evaluate if it is a</text><text fill="#000000" stroke="none" font-family="Arial" font-size="13px" font-style="normal" font-weight="normal" text-decoration="none" x="275.080078125" y="627.5">mandelbrot point</text></g></g><g transform="translate(-62,-22) scale(1,1)"><path fill="#ffffff" stroke="none" d="M 273 680 L 399 680 L 374 751 L 248 751 L 273 680"/></g><g transform="translate(-62,-22) scale(1,1)"><path fill="none" stroke="#000000" d="M 273 680 L 399 680 L 374 751 L 248 751 L 273 680 L 273 680" stroke-miterlimit="10"/></g><g transform="translate(-62,-22) scale(1,1)"><g><path fill="none" stroke="none"/><text fill="#000000" stroke="none" font-family="Arial" font-size="13px" font-style="normal" font-weight="normal" text-decoration="none" x="288.813232421875" y="702.5">Set iteration</text><text fill="#000000" stroke="none" font-family="Arial" font-size="13px" font-style="normal" font-weight="normal" text-decoration="none" x="301.813232421875" y="715.5">data on</text><text fill="#000000" stroke="none" font-family="Arial" font-size="13px" font-style="normal" font-weight="normal" text-decoration="none" x="290.98095703125" y="728.5">mandelbrot</text><text fill="#000000" stroke="none" font-family="Arial" font-size="13px" font-style="normal" font-weight="normal" text-decoration="none" x="305.805908203125" y="741.5">matrix</text></g></g><g transform="translate(-62,-22) scale(1,1)"><path fill="#ffffff" stroke="none" d="M 260 827.5 L 323.5 788 L 387 827.5 L 323.5 867 L 260 827.5"/></g><g transform="translate(-62,-22) scale(1,1)"><path fill="none" stroke="#000000" d="M 260 827.5 L 323.5 788 L 387 827.5 L 323.5 867 L 260 827.5 L 260 827.5" stroke-miterlimit="10"/></g><g transform="translate(-62,-22) scale(1,1)"><g><path fill="none" stroke="none"/><text fill="#000000" stroke="none" font-family="Arial" font-size="13px" font-style="normal" font-weight="normal" text-decoration="none" x="297.484130859375" y="827.5">last point</text><text fill="#000000" stroke="none" font-family="Arial" font-size="13px" font-style="normal" font-weight="normal" text-decoration="none" x="298.569580078125" y="840.5">of image</text></g></g><g transform="translate(-62,-22) scale(1,1)"><path fill="#ffffff" stroke="none" d="M 309 375.5 C 309 367.4918704 315.4918704 361 323.5 361 C 331.5081296 361 338 367.4918704 338 375.5 C 338 383.5081296 331.5081296 390 323.5 390 C 315.4918704 390 309 383.5081296 309 375.5 Z"/></g><g transform="translate(-62,-22) scale(1,1)"><path fill="none" stroke="#000000" d="M 309 375.5 C 309 367.4918704 315.4918704 361 323.5 361 C 331.5081296 361 338 367.4918704 338 375.5 C 338 383.5081296 331.5081296 390 323.5 390 C 315.4918704 390 309 383.5081296 309 375.5 Z" stroke-miterlimit="10"/></g><g transform="translate(-62,-22) scale(1,1)"><path fill="none" stroke="#000000" d="M 323 361 L 323 390" stroke-miterlimit="10"/></g><g transform="translate(-62,-22) scale(1,1)"><path fill="none" stroke="#000000" d="M 309 375 L 338 375" stroke-miterlimit="10"/></g><g transform="translate(-62,-22) scale(1,1)"><path fill="none" stroke="#000000" d="M 328 64 L 328 101" stroke-miterlimit="10"/></g><g transform="translate(-62,-22) scale(1,1)"><path fill="#000000" stroke="none" d="M 323.790482243984 90.83732514237585 L 328 101 L 332.209517756016 90.83732514237585"/></g><g transform="translate(-62,-22) scale(1,1)"><path fill="none" stroke="#000000" d="M 323.790482243984 90.83732514237585 L 328 101 L 332.209517756016 90.83732514237585 L 323.790482243984 90.83732514237585" stroke-miterlimit="10"/></g><g transform="translate(-62,-22) scale(1,1)"><path fill="none" stroke="#000000" d="M 321 324 L 321 361" stroke-miterlimit="10"/></g><g transform="translate(-62,-22) scale(1,1)"><path fill="#000000" stroke="none" d="M 316.790482243984 350.83732514237585 L 321 361 L 325.209517756016 350.83732514237585"/></g><g transform="translate(-62,-22) scale(1,1)"><path fill="none" stroke="#000000" d="M 316.790482243984 350.83732514237585 L 321 361 L 325.209517756016 350.83732514237585 L 316.790482243984 350.83732514237585" stroke-miterlimit="10"/></g><g transform="translate(-62,-22) scale(1,1)"><path fill="none" stroke="#000000" d="M 387 827 L 472 827 M 472 827 A 8 8 0 0 0 480 819 L 480 383 M 480 383 A 8 8 0 0 0 472 375 L 338 375" stroke-miterlimit="10"/></g><g transform="translate(-62,-22) scale(1,1)"><path fill="#000000" stroke="none" d="M 348.16267485762415 370.790482243984 L 338 375 L 348.16267485762415 379.209517756016"/></g><g transform="translate(-62,-22) scale(1,1)"><path fill="none" stroke="#000000" d="M 348.16267485762415 370.790482243984 L 338 375 L 348.16267485762415 379.209517756016 L 348.16267485762415 370.790482243984" stroke-miterlimit="10"/></g><g transform="translate(-62,-22) scale(1,1)"><g><path fill="none" stroke="none"/><text fill="#000000" stroke="none" font-family="Arial" font-size="13px" font-style="normal" font-weight="normal" text-decoration="none" x="390.5" y="820.5">YES</text></g></g><g transform="translate(-62,-22) scale(1,1)"><path fill="none" stroke="#000000" d="M 320 390 L 320 427" stroke-miterlimit="10"/></g><g transform="translate(-62,-22) scale(1,1)"><path fill="#000000" stroke="none" d="M 315.790482243984 416.83732514237585 L 320 427 L 324.209517756016 416.83732514237585"/></g><g transform="translate(-62,-22) scale(1,1)"><path fill="none" stroke="#000000" d="M 315.790482243984 416.83732514237585 L 320 427 L 324.209517756016 416.83732514237585 L 315.790482243984 416.83732514237585" stroke-miterlimit="10"/></g><g transform="translate(-62,-22) scale(1,1)"><path fill="none" stroke="#000000" d="M 323 474 L 323 511" stroke-miterlimit="10"/></g><g transform="translate(-62,-22) scale(1,1)"><path fill="#000000" stroke="none" d="M 318.790482243984 500.83732514237585 L 323 511 L 327.209517756016 500.83732514237585"/></g><g transform="translate(-62,-22) scale(1,1)"><path fill="none" stroke="#000000" d="M 318.790482243984 500.83732514237585 L 323 511 L 327.209517756016 500.83732514237585 L 318.790482243984 500.83732514237585" stroke-miterlimit="10"/></g><g transform="translate(-62,-22) scale(1,1)"><path fill="none" stroke="#000000" d="M 323 558 L 323 592" stroke-miterlimit="10"/></g><g transform="translate(-62,-22) scale(1,1)"><path fill="#000000" stroke="none" d="M 318.790482243984 581.8373251423759 L 323 592 L 327.209517756016 581.8373251423759"/></g><g transform="translate(-62,-22) scale(1,1)"><path fill="none" stroke="#000000" d="M 318.790482243984 581.8373251423759 L 323 592 L 327.209517756016 581.8373251423759 L 318.790482243984 581.8373251423759" stroke-miterlimit="10"/></g><g transform="translate(-62,-22) scale(1,1)"><path fill="none" stroke="#000000" d="M 323 640 L 323 680" stroke-miterlimit="10"/></g><g transform="translate(-62,-22) scale(1,1)"><path fill="#000000" stroke="none" d="M 318.790482243984 669.8373251423759 L 323 680 L 327.209517756016 669.8373251423759"/></g><g transform="translate(-62,-22) scale(1,1)"><path fill="none" stroke="#000000" d="M 318.790482243984 669.8373251423759 L 323 680 L 327.209517756016 669.8373251423759 L 318.790482243984 669.8373251423759" stroke-miterlimit="10"/></g><g transform="translate(-62,-22) scale(1,1)"><path fill="#ffffff" stroke="none" d="M 296.5 1016 L 352.578125 1016 Q 369.078125 1016 369.078125 1032.5 L 369.078125 1031.5 Q 369.078125 1048 352.578125 1048 L 296.5 1048 Q 280 1048 280 1031.5 L 280 1032.5 Q 280 1016 296.5 1016 Z"/></g><g transform="translate(-62,-22) scale(1,1)"><path fill="none" stroke="#000000" d="M 296.5 1016 L 352.578125 1016 Q 369.078125 1016 369.078125 1032.5 L 369.078125 1031.5 Q 369.078125 1048 352.578125 1048 L 296.5 1048 Q 280 1048 280 1031.5 L 280 1032.5 Q 280 1016 296.5 1016 Z" stroke-miterlimit="10"/></g><g transform="translate(-62,-22) scale(1,1)"><g><path fill="none" stroke="none"/><text fill="#000000" stroke="none" font-family="Arial" font-size="13px" font-style="normal" font-weight="normal" text-decoration="none" x="310.8154296875" y="1038.5">END</text></g></g><g transform="translate(-62,-22) scale(1,1)"><path fill="none" stroke="#000000" d="M 324 751 L 324 788" stroke-miterlimit="10"/></g><g transform="translate(-62,-22) scale(1,1)"><path fill="#000000" stroke="none" d="M 319.790482243984 777.8373251423759 L 324 788 L 328.209517756016 777.8373251423759"/></g><g transform="translate(-62,-22) scale(1,1)"><path fill="none" stroke="#000000" d="M 319.790482243984 777.8373251423759 L 324 788 L 328.209517756016 777.8373251423759 L 319.790482243984 777.8373251423759" stroke-miterlimit="10"/></g><g transform="translate(-62,-22) scale(1,1)"><path fill="#ffffff" stroke="none" d="M 512 96 L 677 96 L 687 106 L 687 150 L 512 150 L 512 96"/></g><g transform="translate(-62,-22) scale(1,1)"><path fill="none" stroke="#000000" d="M 512 96 L 677 96 L 687 106 L 687 150 L 512 150 L 512 96 L 512 96" stroke-miterlimit="10"/></g><g transform="translate(-62,-22) scale(1,1)"><path fill="none" stroke="#000000" d="M 677 96 L 677 106 L 687 106 L 677 96" stroke-miterlimit="10"/></g><g transform="translate(-62,-22) scale(1,1)"><g><path fill="none" stroke="none"/><text fill="#000000" stroke="none" font-family="Arial" font-size="13px" font-style="normal" font-weight="normal" text-decoration="none" x="517" y="114">See principal for dimensions</text><text fill="#000000" stroke="none" font-family="Arial" font-size="13px" font-style="normal" font-weight="normal" text-decoration="none" x="517" y="127">values</text></g></g><g transform="translate(-62,-22) scale(1,1)"><path fill="none" stroke="#000000" d="M 400 123 L 511 123" stroke-miterlimit="10" stroke-dasharray="3"/></g><g transform="translate(-62,-22) scale(1,1)"><path fill="#ffffff" stroke="none" d="M 512 592 L 639.9453125 592 L 649.9453125 602 L 649.9453125 640 L 512 640 L 512 592"/></g><g transform="translate(-62,-22) scale(1,1)"><path fill="none" stroke="#000000" d="M 512 592 L 639.9453125 592 L 649.9453125 602 L 649.9453125 640 L 512 640 L 512 592 L 512 592" stroke-miterlimit="10"/></g><g transform="translate(-62,-22) scale(1,1)"><path fill="none" stroke="#000000" d="M 639.9453125 592 L 639.9453125 602 L 649.9453125 602 L 639.9453125 592" stroke-miterlimit="10"/></g><g transform="translate(-62,-22) scale(1,1)"><g><path fill="none" stroke="none"/><text fill="#000000" stroke="none" font-family="Arial" font-size="13px" font-style="normal" font-weight="normal" text-decoration="none" x="517" y="610">See</text><text fill="#000000" stroke="none" font-family="Arial" font-size="13px" font-style="normal" font-weight="normal" text-decoration="none" x="517" y="623">MandelbrotAlgorithm</text></g></g><g transform="translate(-62,-22) scale(1,1)"><path fill="none" stroke="#000000" d="M 400 616 L 511 616" stroke-miterlimit="10" stroke-dasharray="3"/></g><g transform="translate(-62,-22) scale(1,1)"><path fill="#ffffff" stroke="none" d="M 512 488 L 765 488 L 775 498 L 775 577 L 512 577 L 512 488"/></g><g transform="translate(-62,-22) scale(1,1)"><path fill="none" stroke="#000000" d="M 512 488 L 765 488 L 775 498 L 775 577 L 512 577 L 512 488 L 512 488" stroke-miterlimit="10"/></g><g transform="translate(-62,-22) scale(1,1)"><path fill="none" stroke="#000000" d="M 765 488 L 765 498 L 775 498 L 765 488" stroke-miterlimit="10"/></g><g transform="translate(-62,-22) scale(1,1)"><g><path fill="none" stroke="none"/><text fill="#000000" stroke="none" font-family="Arial" font-size="13px" font-style="normal" font-weight="normal" text-decoration="none" x="517" y="506">row = row of image</text></g></g><g transform="translate(-62,-22) scale(1,1)"><g><path fill="none" stroke="none"/><text fill="#000000" stroke="none" font-family="Arial" font-size="13px" font-style="normal" font-weight="normal" text-decoration="none" x="517" y="521">column = column of image</text></g></g><g transform="translate(-62,-22) scale(1,1)"><g><path fill="none" stroke="none"/><text fill="#000000" stroke="none" font-family="Arial" font-size="13px" font-style="normal" font-weight="normal" text-decoration="none" x="517" y="536">H = number of columns</text></g></g><g transform="translate(-62,-22) scale(1,1)"><g><path fill="none" stroke="none"/><text fill="#000000" stroke="none" font-family="Arial" font-size="13px" font-style="normal" font-weight="normal" text-decoration="none" x="517" y="551">V = number of rows</text></g></g><g transform="translate(-62,-22) scale(1,1)"><g><path fill="none" stroke="none"/><text fill="#000000" stroke="none" font-family="Arial" font-size="13px" font-style="normal" font-weight="normal" text-decoration="none" x="517" y="566">cmplx = 3*columns / H -2 +j( -2*row /V +1)</text></g></g><g transform="translate(-62,-22) scale(1,1)"><g><path fill="none" stroke="none"/></g></g><g transform="translate(-62,-22) scale(1,1)"><g><path fill="none" stroke="none"/></g></g><g transform="translate(-62,-22) scale(1,1)"><g><path fill="none" stroke="none"/></g></g><g transform="translate(-62,-22) scale(1,1)"><path fill="none" stroke="#000000" d="M 400 534 L 511 533" stroke-miterlimit="10" stroke-dasharray="3"/></g><g transform="translate(-62,-22) scale(1,1)"><path fill="#ffffff" stroke="none" d="M 312 974.5 C 312 966.4918704 318.4918704 960 326.5 960 C 334.5081296 960 341 966.4918704 341 974.5 C 341 982.5081296 334.5081296 989 326.5 989 C 318.4918704 989 312 982.5081296 312 974.5 Z"/></g><g transform="translate(-62,-22) scale(1,1)"><path fill="none" stroke="#000000" d="M 312 974.5 C 312 966.4918704 318.4918704 960 326.5 960 C 334.5081296 960 341 966.4918704 341 974.5 C 341 982.5081296 334.5081296 989 326.5 989 C 318.4918704 989 312 982.5081296 312 974.5 Z" stroke-miterlimit="10"/></g><g transform="translate(-62,-22) scale(1,1)"><path fill="none" stroke="#000000" d="M 326 960 L 326 989" stroke-miterlimit="10"/></g><g transform="translate(-62,-22) scale(1,1)"><path fill="none" stroke="#000000" d="M 312 974 L 341 974" stroke-miterlimit="10"/></g><g transform="translate(-62,-22) scale(1,1)"><path fill="none" stroke="#000000" d="M 325 989 L 325 1016" stroke-miterlimit="10"/></g><g transform="translate(-62,-22) scale(1,1)"><path fill="#000000" stroke="none" d="M 320.790482243984 1005.8373251423759 L 325 1016 L 329.209517756016 1005.8373251423759"/></g><g transform="translate(-62,-22) scale(1,1)"><path fill="none" stroke="#000000" d="M 320.790482243984 1005.8373251423759 L 325 1016 L 329.209517756016 1005.8373251423759 L 320.790482243984 1005.8373251423759" stroke-miterlimit="10"/></g><g transform="translate(-62,-22) scale(1,1)"><path fill="#ffffff" stroke="none" d="M 256 209.5 L 321.25537109375 184 L 386.5107421875 209.5 L 321.25537109375 235 L 256 209.5"/></g><g transform="translate(-62,-22) scale(1,1)"><path fill="none" stroke="#000000" d="M 256 209.5 L 321.25537109375 184 L 386.5107421875 209.5 L 321.25537109375 235 L 256 209.5 L 256 209.5" stroke-miterlimit="10"/></g><g transform="translate(-62,-22) scale(1,1)"><g><path fill="none" stroke="none"/><text fill="#000000" stroke="none" font-family="Arial" font-size="13px" font-style="normal" font-weight="normal" text-decoration="none" x="288.377685546875" y="209.5">dimensions</text><text fill="#000000" stroke="none" font-family="Arial" font-size="13px" font-style="normal" font-weight="normal" text-decoration="none" x="304.272216796875" y="222.5">valid?</text></g></g><g transform="translate(-62,-22) scale(1,1)"><path fill="none" stroke="#000000" d="M 322 146 L 322 184" stroke-miterlimit="10"/></g><g transform="translate(-62,-22) scale(1,1)"><path fill="#000000" stroke="none" d="M 317.790482243984 173.83732514237585 L 322 184 L 326.209517756016 173.83732514237585"/></g><g transform="translate(-62,-22) scale(1,1)"><path fill="none" stroke="#000000" d="M 317.790482243984 173.83732514237585 L 322 184 L 326.209517756016 173.83732514237585 L 317.790482243984 173.83732514237585" stroke-miterlimit="10"/></g><g transform="translate(-62,-22) scale(1,1)"><path fill="none" stroke="#000000" d="M 322 235 L 322 279" stroke-miterlimit="10"/></g><g transform="translate(-62,-22) scale(1,1)"><path fill="#000000" stroke="none" d="M 317.790482243984 268.83732514237585 L 322 279 L 326.209517756016 268.83732514237585"/></g><g transform="translate(-62,-22) scale(1,1)"><path fill="none" stroke="#000000" d="M 317.790482243984 268.83732514237585 L 322 279 L 326.209517756016 268.83732514237585 L 317.790482243984 268.83732514237585" stroke-miterlimit="10"/></g><g transform="translate(-62,-22) scale(1,1)"><g><path fill="none" stroke="none"/><text fill="#000000" stroke="none" font-family="Arial" font-size="13px" font-style="normal" font-weight="normal" text-decoration="none" x="326.5" y="262.5">YES</text></g></g><g transform="translate(-62,-22) scale(1,1)"><rect fill="#ffffff" stroke="none" x="72" y="192" width="136.06982421875" height="32"/></g><g transform="translate(-62,-22) scale(1,1)"><path fill="none" stroke="#000000" d="M 72 192 L 208.06982421875 192 L 208.06982421875 224 L 72 224 L 72 192 Z Z" stroke-miterlimit="10"/></g><g transform="translate(-62,-22) scale(1,1)"><path fill="none" stroke="#000000" d="M 77 192 L 77 224" stroke-miterlimit="10"/></g><g transform="translate(-62,-22) scale(1,1)"><path fill="none" stroke="#000000" d="M 203.06982421875 192 L 203.06982421875 224" stroke-miterlimit="10"/></g><g transform="translate(-62,-22) scale(1,1)"><g><path fill="none" stroke="none"/><text fill="#000000" stroke="none" font-family="Arial" font-size="13px" font-style="normal" font-weight="normal" text-decoration="none" x="117.969482421875" y="214.5">return -1</text></g></g><g transform="translate(-62,-22) scale(1,1)"><path fill="none" stroke="#000000" d="M 256 209 L 208 209" stroke-miterlimit="10"/></g><g transform="translate(-62,-22) scale(1,1)"><path fill="#000000" stroke="none" d="M 218.16267485762415 204.790482243984 L 208 209 L 218.16267485762415 213.209517756016"/></g><g transform="translate(-62,-22) scale(1,1)"><path fill="none" stroke="#000000" d="M 218.16267485762415 204.790482243984 L 208 209 L 218.16267485762415 213.209517756016 L 218.16267485762415 204.790482243984" stroke-miterlimit="10"/></g><g transform="translate(-62,-22) scale(1,1)"><path fill="none" stroke="#000000" d="M 144 224 L 144 968 M 144 968 A 8 8 0 0 0 152 976 L 312 976" stroke-miterlimit="10"/></g><g transform="translate(-62,-22) scale(1,1)"><path fill="#000000" stroke="none" d="M 301.83732514237585 980.209517756016 L 312 976 L 301.83732514237585 971.790482243984"/></g><g transform="translate(-62,-22) scale(1,1)"><path fill="none" stroke="#000000" d="M 301.83732514237585 980.209517756016 L 312 976 L 301.83732514237585 971.790482243984 L 301.83732514237585 980.209517756016" stroke-miterlimit="10"/></g><g transform="translate(-62,-22) scale(1,1)"><rect fill="#ffffff" stroke="none" x="248" y="888" width="151" height="39"/></g><g transform="translate(-62,-22) scale(1,1)"><path fill="none" stroke="#000000" d="M 248 888 L 399 888 L 399 927 L 248 927 L 248 888 Z Z" stroke-miterlimit="10"/></g><g transform="translate(-62,-22) scale(1,1)"><path fill="none" stroke="#000000" d="M 253 888 L 253 927" stroke-miterlimit="10"/></g><g transform="translate(-62,-22) scale(1,1)"><path fill="none" stroke="#000000" d="M 394 888 L 394 927" stroke-miterlimit="10"/></g><g transform="translate(-62,-22) scale(1,1)"><g><path fill="none" stroke="none"/><text fill="#000000" stroke="none" font-family="Arial" font-size="13px" font-style="normal" font-weight="normal" text-decoration="none" x="303.59912109375" y="910.5">return 0</text></g></g><g transform="translate(-62,-22) scale(1,1)"><path fill="none" stroke="#000000" d="M 323 867 L 323 888" stroke-miterlimit="10"/></g><g transform="translate(-62,-22) scale(1,1)"><path fill="#000000" stroke="none" d="M 318.790482243984 877.8373251423759 L 323 888 L 327.209517756016 877.8373251423759"/></g><g transform="translate(-62,-22) scale(1,1)"><path fill="none" stroke="#000000" d="M 318.790482243984 877.8373251423759 L 323 888 L 327.209517756016 877.8373251423759 L 318.790482243984 877.8373251423759" stroke-miterlimit="10"/></g><g transform="translate(-62,-22) scale(1,1)"><path fill="none" stroke="#000000" d="M 324 927 L 324 960" stroke-miterlimit="10"/></g><g transform="translate(-62,-22) scale(1,1)"><path fill="#000000" stroke="none" d="M 319.790482243984 949.8373251423759 L 324 960 L 328.209517756016 949.8373251423759"/></g><g transform="translate(-62,-22) scale(1,1)"><path fill="none" stroke="#000000" d="M 319.790482243984 949.8373251423759 L 324 960 L 328.209517756016 949.8373251423759 L 319.790482243984 949.8373251423759" stroke-miterlimit="10"/></g></g></svg>