<svg version="1.1" xmlns="http://www.w3.org/2000/svg" xmlns:xlink="http://www.w3.org/1999/xlink" width="611" height="444"><defs/><g><g transform="translate(-62,-6) scale(1,1)"><path fill="#ffffff" stroke="none" d="M 311.5 16 L 367.578125 16 Q 384.078125 16 384.078125 32.5 L 384.078125 31.5 Q 384.078125 48 367.578125 48 L 311.5 48 Q 295 48 295 31.5 L 295 32.5 Q 295 16 311.5 16 Z"/></g><g transform="translate(-62,-6) scale(1,1)"><path fill="none" stroke="#000000" d="M 311.5 16 L 367.578125 16 Q 384.078125 16 384.078125 32.5 L 384.078125 31.5 Q 384.078125 48 367.578125 48 L 311.5 48 Q 295 48 295 31.5 L 295 32.5 Q 295 16 311.5 16 Z" stroke-miterlimit="10"/></g><g transform="translate(-62,-6) scale(1,1)"><g><path fill="none" stroke="none"/><text fill="#000000" stroke="none" font-family="Arial" font-size="13px" font-style="normal" font-weight="normal" text-decoration="none" x="318.233154296875" y="38.5">START</text></g></g><g transform="translate(-62,-6) scale(1,1)"><path fill="#ffffff" stroke="none" d="M 285 81 L 419 81 L 393 139 L 259 139 L 285 81"/></g><g transform="translate(-62,-6) scale(1,1)"><path fill="none" stroke="#000000" d="M 285 81 L 419 81 L 393 139 L 259 139 L 285 81 L 285 81" stroke-miterlimit="10"/></g><g transform="translate(-62,-6) scale(1,1)"><g><path fill="none" stroke="none"/><text fill="#000000" stroke="none" font-family="Arial" font-size="13px" font-style="normal" font-weight="normal" text-decoration="none" x="307.563232421875" y="103.5">Data input:</text><text fill="#000000" stroke="none" font-family="Arial" font-size="13px" font-style="normal" font-weight="normal" text-decoration="none" x="314.431396484375" y="116.5">filename</text><text fill="#000000" stroke="none" font-family="Arial" font-size="13px" font-style="normal" font-weight="normal" text-decoration="none" x="310.81640625" y="129.5">resolution</text></g></g><g transform="translate(-62,-6) scale(1,1)"><rect fill="#ffffff" stroke="none" x="256" y="178" width="168" height="45"/></g><g transform="translate(-62,-6) scale(1,1)"><path fill="none" stroke="#000000" d="M 256 178 L 424 178 L 424 223 L 256 223 L 256 178 Z Z" stroke-miterlimit="10"/></g><g transform="translate(-62,-6) scale(1,1)"><g><path fill="none" stroke="none"/><text fill="#000000" stroke="none" font-family="Arial" font-size="13px" font-style="normal" font-weight="normal" text-decoration="none" x="273.879638671875" y="200.5">Creation of mandelbrot</text><text fill="#000000" stroke="none" font-family="Arial" font-size="13px" font-style="normal" font-weight="normal" text-decoration="none" x="320.5" y="213.5">matrix </text></g></g><g transform="translate(-62,-6) scale(1,1)"><rect fill="#ffffff" stroke="none" x="256" y="259" width="167" height="45"/></g><g transform="translate(-62,-6) scale(1,1)"><path fill="none" stroke="#000000" d="M 256 259 L 423 259 L 423 304 L 256 304 L 256 259 Z Z" stroke-miterlimit="10"/></g><g transform="translate(-62,-6) scale(1,1)"><g><path fill="none" stroke="none"/><text fill="#000000" stroke="none" font-family="Arial" font-size="13px" font-style="normal" font-weight="normal" text-decoration="none" x="270.510498046875" y="281.5">Write mandelbrot matrix</text><text fill="#000000" stroke="none" font-family="Arial" font-size="13px" font-style="normal" font-weight="normal" text-decoration="none" x="308.4345703125" y="294.5">in BMP file</text></g></g><g transform="translate(-62,-6) scale(1,1)"><rect fill="#ffffff" stroke="none" x="256" y="340" width="167" height="32"/></g><g transform="translate(-62,-6) scale(1,1)"><path fill="none" stroke="#000000" d="M 256 340 L 423 340 L 423 372 L 256 372 L 256 340 Z Z" stroke-miterlimit="10"/></g><g transform="translate(-62,-6) scale(1,1)"><g><path fill="none" stroke="none"/><text fill="#000000" stroke="none" font-family="Arial" font-size="13px" font-style="normal" font-weight="normal" text-decoration="none" x="295.7900390625" y="362.5">Free resources</text></g></g><g transform="translate(-62,-6) scale(1,1)"><path fill="#ffffff" stroke="none" d="M 311.5 408 L 367.578125 408 Q 384.078125 408 384.078125 424.5 L 384.078125 423.5 Q 384.078125 440 367.578125 440 L 311.5 440 Q 295 440 295 423.5 L 295 424.5 Q 295 408 311.5 408 Z"/></g><g transform="translate(-62,-6) scale(1,1)"><path fill="none" stroke="#000000" d="M 311.5 408 L 367.578125 408 Q 384.078125 408 384.078125 424.5 L 384.078125 423.5 Q 384.078125 440 367.578125 440 L 311.5 440 Q 295 440 295 423.5 L 295 424.5 Q 295 408 311.5 408 Z" stroke-miterlimit="10"/></g><g transform="translate(-62,-6) scale(1,1)"><g><path fill="none" stroke="none"/><text fill="#000000" stroke="none" font-family="Arial" font-size="13px" font-style="normal" font-weight="normal" text-decoration="none" x="325.8154296875" y="430.5">END</text></g></g><g transform="translate(-62,-6) scale(1,1)"><path fill="none" stroke="#000000" d="M 339 48 L 339 81" stroke-miterlimit="10"/></g><g transform="translate(-62,-6) scale(1,1)"><path fill="#000000" stroke="none" d="M 334.790482243984 70.83732514237585 L 339 81 L 343.209517756016 70.83732514237585"/></g><g transform="translate(-62,-6) scale(1,1)"><path fill="none" stroke="#000000" d="M 334.790482243984 70.83732514237585 L 339 81 L 343.209517756016 70.83732514237585 L 334.790482243984 70.83732514237585" stroke-miterlimit="10"/></g><g transform="translate(-62,-6) scale(1,1)"><path fill="none" stroke="#000000" d="M 339 139 L 339 178" stroke-miterlimit="10"/></g><g transform="translate(-62,-6) scale(1,1)"><path fill="#000000" stroke="none" d="M 334.790482243984 167.83732514237585 L 339 178 L 343.209517756016 167.83732514237585"/></g><g transform="translate(-62,-6) scale(1,1)"><path fill="none" stroke="#000000" d="M 334.790482243984 167.83732514237585 L 339 178 L 343.209517756016 167.83732514237585 L 334.790482243984 167.83732514237585" stroke-miterlimit="10"/></g><g transform="translate(-62,-6) scale(1,1)"><path fill="none" stroke="#000000" d="M 339 223 L 339 259" stroke-miterlimit="10"/></g><g transform="translate(-62,-6) scale(1,1)"><path fill="#000000" stroke="none" d="M 334.790482243984 248.83732514237585 L 339 259 L 343.209517756016 248.83732514237585"/></g><g transform="translate(-62,-6) scale(1,1)"><path fill="none" stroke="#000000" d="M 334.790482243984 248.83732514237585 L 339 259 L 343.209517756016 248.83732514237585 L 334.790482243984 248.83732514237585" stroke-miterlimit="10"/></g><g transform="translate(-62,-6) scale(1,1)"><path fill="none" stroke="#000000" d="M 339 304 L 339 340" stroke-miterlimit="10"/></g><g transform="translate(-62,-6) scale(1,1)"><path fill="#000000" stroke="none" d="M 334.790482243984 329.83732514237585 L 339 340 L 343.209517756016 329.83732514237585"/></g><g transform="translate(-62,-6) scale(1,1)"><path fill="none" stroke="#000000" d="M 334.790482243984 329.83732514237585 L 339 340 L 343.209517756016 329.83732514237585 L 334.790482243984 329.83732514237585" stroke-miterlimit="10"/></g><g transform="translate(-62,-6) scale(1,1)"><path fill="none" stroke="#000000" d="M 339 372 L 339 408" stroke-miterlimit="10"/></g><g transform="translate(-62,-6) scale(1,1)"><path fill="#000000" stroke="none" d="M 334.790482243984 397.83732514237585 L 339 408 L 343.209517756016 397.83732514237585"/></g><g transform="translate(-62,-6) scale(1,1)"><path fill="none" stroke="#000000" d="M 334.790482243984 397.83732514237585 L 339 408 L 343.209517756016 397.83732514237585 L 334.790482243984 397.83732514237585" stroke-miterlimit="10"/></g><g transform="translate(-62,-6) scale(1,1)"><path fill="#ffffff" stroke="none" d="M 488 82 L 652 82 L 662 92 L 662 137 L 488 137 L 488 82"/></g><g transform="translate(-62,-6) scale(1,1)"><path fill="none" stroke="#000000" d="M 488 82 L 652 82 L 662 92 L 662 137 L 488 137 L 488 82 L 488 82" stroke-miterlimit="10"/></g><g transform="translate(-62,-6) scale(1,1)"><path fill="none" stroke="#000000" d="M 652 82 L 652 92 L 662 92 L 652 82" stroke-miterlimit="10"/></g><g transform="translate(-62,-6) scale(1,1)"><g><path fill="none" stroke="none"/><text fill="#000000" stroke="none" font-family="Arial" font-size="13px" font-style="normal" font-weight="normal" text-decoration="none" x="493" y="100">Final image dimensions:</text></g></g><g transform="translate(-62,-6) scale(1,1)"><g><path fill="none" stroke="none"/><text fill="#000000" stroke="none" font-family="Arial" font-size="13px" font-style="normal" font-weight="normal" text-decoration="none" x="493" y="115">Vdim = resolution *2</text></g></g><g transform="translate(-62,-6) scale(1,1)"><g><path fill="none" stroke="none"/><text fill="#000000" stroke="none" font-family="Arial" font-size="13px" font-style="normal" font-weight="normal" text-decoration="none" x="493" y="130">Hdim = resolution *3</text></g></g><g transform="translate(-62,-6) scale(1,1)"><path fill="none" stroke="#000000" d="M 420 110 L 487 110" stroke-miterlimit="10" stroke-dasharray="3"/></g><g transform="translate(-62,-6) scale(1,1)"><rect fill="#ffffff" stroke="none" x="72" y="88" width="143" height="40"/></g><g transform="translate(-62,-6) scale(1,1)"><path fill="none" stroke="#000000" d="M 72 88 L 215 88 L 215 128 L 72 128 L 72 88 Z Z" stroke-miterlimit="10"/></g><g transform="translate(-62,-6) scale(1,1)"><path fill="none" stroke="#000000" d="M 77 88 L 77 128" stroke-miterlimit="10"/></g><g transform="translate(-62,-6) scale(1,1)"><path fill="none" stroke="#000000" d="M 210 88 L 210 128" stroke-miterlimit="10"/></g><g transform="translate(-62,-6) scale(1,1)"><g><path fill="none" stroke="none"/><text fill="#000000" stroke="none" font-family="Arial" font-size="13px" font-style="normal" font-weight="normal" text-decoration="none" x="99.024169921875" y="110.5">Standard values</text></g></g><g transform="translate(-62,-6) scale(1,1)"><path fill="none" stroke="#000000" d="M 215 109 L 259 109" stroke-miterlimit="10"/></g><g transform="translate(-62,-6) scale(1,1)"><path fill="#000000" stroke="none" d="M 248.83732514237585 113.20951775601598 L 259 109 L 248.83732514237585 104.79048224398402"/></g><g transform="translate(-62,-6) scale(1,1)"><path fill="none" stroke="#000000" d="M 248.83732514237585 113.20951775601598 L 259 109 L 248.83732514237585 104.79048224398402 L 248.83732514237585 113.20951775601598" stroke-miterlimit="10"/></g><g transform="translate(-62,-6) scale(1,1)"><path fill="#ffffff" stroke="none" d="M 494 178 L 586.525390625 178 L 596.525390625 188 L 596.525390625 226 L 494 226 L 494 178"/></g><g transform="translate(-62,-6) scale(1,1)"><path fill="none" stroke="#000000" d="M 494 178 L 586.525390625 178 L 596.525390625 188 L 596.525390625 226 L 494 226 L 494 178 L 494 178" stroke-miterlimit="10"/></g><g transform="translate(-62,-6) scale(1,1)"><path fill="none" stroke="#000000" d="M 586.525390625 178 L 586.525390625 188 L 596.525390625 188 L 586.525390625 178" stroke-miterlimit="10"/></g><g transform="translate(-62,-6) scale(1,1)"><g><path fill="none" stroke="none"/><text fill="#000000" stroke="none" font-family="Arial" font-size="13px" font-style="normal" font-weight="normal" text-decoration="none" x="499" y="196">MatrixCreation</text><text fill="#000000" stroke="none" font-family="Arial" font-size="13px" font-style="normal" font-weight="normal" text-decoration="none" x="499" y="209">flowchart</text></g></g><g transform="translate(-62,-6) scale(1,1)"><path fill="none" stroke="#000000" d="M 425 201 L 493 201" stroke-miterlimit="10" stroke-dasharray="3"/></g><g transform="translate(-62,-6) scale(1,1)"><path fill="#ffffff" stroke="none" d="M 493 259 L 586.26806640625 259 L 596.26806640625 269 L 596.26806640625 307 L 493 307 L 493 259"/></g><g transform="translate(-62,-6) scale(1,1)"><path fill="none" stroke="#000000" d="M 493 259 L 586.26806640625 259 L 596.26806640625 269 L 596.26806640625 307 L 493 307 L 493 259 L 493 259" stroke-miterlimit="10"/></g><g transform="translate(-62,-6) scale(1,1)"><path fill="none" stroke="#000000" d="M 586.26806640625 259 L 586.26806640625 269 L 596.26806640625 269 L 586.26806640625 259" stroke-miterlimit="10"/></g><g transform="translate(-62,-6) scale(1,1)"><g><path fill="none" stroke="none"/><text fill="#000000" stroke="none" font-family="Arial" font-size="13px" font-style="normal" font-weight="normal" text-decoration="none" x="498" y="277">ImageCreation</text><text fill="#000000" stroke="none" font-family="Arial" font-size="13px" font-style="normal" font-weight="normal" text-decoration="none" x="498" y="290">flowchart</text></g></g><g transform="translate(-62,-6) scale(1,1)"><path fill="none" stroke="#000000" d="M 424 282 L 492 282" stroke-miterlimit="10" stroke-dasharray="3"/></g></g></svg>